<svg width="24" height="23" viewBox="0 0 24 23" fill="none" xmlns="http://www.w3.org/2000/svg">
<path fill-rule="evenodd" clip-rule="evenodd" d="M23.6743 10.3148C23.4648 10.5277 23.2197 10.7024 22.9501 10.8311C22.7369 10.9309 22.4833 10.8389 22.3835 10.6258C22.2837 10.4126 22.3757 10.1589 22.5888 10.0592C22.9109 9.90885 23.1787 9.66276 23.3557 9.35453C23.7562 8.65163 23.6073 7.76404 22.9993 7.23032C22.3914 6.6966 21.492 6.66387 20.8468 7.152C20.7251 7.24332 20.5638 7.26274 20.4239 7.20296C20.2839 7.14317 20.1865 7.01325 20.1683 6.86214C20.1501 6.71104 20.2139 6.56169 20.3356 6.47037C20.6424 6.24092 20.9972 6.08404 21.3734 6.01154C20.9738 3.77194 19.032 2.13708 16.7571 2.12496C16.7447 2.12496 16.7311 2.12496 16.7187 2.12496C16.7435 2.26563 16.7563 2.40815 16.7571 2.55098C16.7661 2.78626 16.5827 2.98434 16.3474 2.9934C16.1121 3.00246 15.9141 2.81906 15.905 2.58378C15.907 1.92966 15.5488 1.32755 14.9729 1.0173C14.4417 0.755438 13.8131 0.785802 13.3096 1.09764C12.8062 1.40948 12.499 1.95877 12.4969 2.55097C12.4969 2.78626 12.3061 2.97699 12.0708 2.97699C11.8355 2.97699 11.6448 2.78626 11.6448 2.55097C11.6447 2.20287 11.7162 1.85846 11.8548 1.53918C11.2371 1.08886 10.4922 0.846446 9.72772 0.846893C8.44919 0.851336 7.26608 1.52401 6.6084 2.62042C6.43825 2.90925 6.3092 3.2204 6.22498 3.54488C6.18647 3.69221 6.07229 3.80781 5.92544 3.84813C5.7786 3.88845 5.62139 3.84736 5.51306 3.74034C5.40472 3.63333 5.3617 3.47665 5.40021 3.32932C5.46454 3.09179 5.54832 2.85996 5.6507 2.63618C5.45232 2.58087 5.24745 2.55222 5.04149 2.55097C3.8308 2.55266 2.8203 3.4755 2.70904 4.68107C3.51173 4.68151 4.26658 5.06282 4.74328 5.70863C4.88446 5.89686 4.8463 6.16389 4.65808 6.30506C4.46985 6.44623 4.20282 6.40808 4.06165 6.21985C3.74275 5.78663 3.23632 5.53152 2.69839 5.53311C1.93279 5.53361 1.26151 6.04463 1.05721 6.78246C0.852905 7.5203 1.16575 8.30381 1.82206 8.69801C2.02382 8.81907 2.08924 9.08076 1.96819 9.28251C1.84714 9.48427 1.58544 9.54969 1.38369 9.42864C1.10298 9.25795 0.857923 9.03459 0.662011 8.77086C-0.168863 10.3455 0.0132158 12.263 1.12561 13.6532C2.23801 15.0433 4.06891 15.6414 5.78745 15.1761C5.71733 14.8779 5.68146 14.5728 5.68052 14.2665C5.68052 14.1945 5.69117 14.1238 5.69501 14.0535H5.68052C4.50469 14.0521 3.55183 13.0993 3.55043 11.9234C3.54992 11.6865 3.73959 11.4931 3.97644 11.4889C4.08854 11.4869 4.19673 11.53 4.2768 11.6085C4.35687 11.687 4.40214 11.7943 4.40246 11.9064V11.9234C4.4024 12.2871 4.55729 12.6336 4.82834 12.8761C5.09939 13.1186 5.46093 13.2342 5.82238 13.1938L5.82622 13.1908C5.92323 12.8371 6.06815 12.4982 6.25692 12.1837C6.37821 11.9821 6.64 11.9169 6.84163 12.0382C7.04327 12.1595 7.10841 12.4213 6.98712 12.6229C6.50021 13.4318 6.39841 14.4154 6.70936 15.3069V15.3094C7.08119 16.391 8.00318 17.1911 9.12636 17.4068C10.2495 17.6225 11.4023 17.2209 12.1484 16.354C12.2723 16.2276 12.4568 16.1818 12.6255 16.2356C13.3852 16.5362 14.2035 16.6595 15.018 16.596C15.4382 16.5679 15.8537 16.4916 16.2565 16.3685C16.4814 16.2995 16.7197 16.4258 16.7888 16.6507C16.8578 16.8757 16.7315 17.114 16.5065 17.1831C16.0446 17.3243 15.5681 17.4123 15.0862 17.4455C15.0789 17.4455 15.0704 17.4455 15.0632 17.4455C15.125 18.643 15.5467 19.3081 17.7437 20.0404C19.0502 20.3997 20.0808 21.4046 20.4728 22.7017C20.5271 22.8806 20.6931 23.0021 20.8801 22.9999H21.3913C21.512 23.0005 21.6274 22.9499 21.7086 22.8605C21.7899 22.7711 21.8294 22.6515 21.8173 22.5313C21.7035 21.4083 21.3572 19.5168 20.3117 18.4177C20.0063 18.526 19.6918 18.6069 19.3719 18.6592C19.3494 18.663 19.3266 18.6648 19.3038 18.6648C19.0811 18.6653 18.8955 18.4943 18.878 18.2723C18.8605 18.0503 19.0169 17.8522 19.2369 17.8178C20.7133 17.5771 21.9837 16.6407 22.6506 15.3018C21.4987 15.9032 20.1262 15.9069 18.9711 15.3116C18.6488 15.1497 18.3507 14.9437 18.0854 14.6994C17.0415 15.1942 15.7937 14.7613 15.2805 13.7263C15.1746 13.516 15.2593 13.2596 15.4696 13.1538C15.68 13.0479 15.9363 13.1326 16.0422 13.3429C16.3577 13.9745 17.1255 14.2308 17.7571 13.9153C18.3887 13.5998 18.645 12.832 18.3295 12.2003C18.261 12.0643 18.2703 11.902 18.3539 11.7746C18.4375 11.6473 18.5827 11.5742 18.7348 11.5829C18.8868 11.5917 19.0227 11.6808 19.0912 11.8169C19.478 12.5894 19.3588 13.5191 18.7896 14.169C18.964 14.3165 19.1545 14.4438 19.3575 14.5486C19.8037 14.7828 20.3002 14.9053 20.8042 14.9056C21.7048 14.9028 22.5629 14.5219 23.1691 13.8558L23.1789 13.8456C23.4076 13.6085 23.5925 13.3327 23.725 13.0311C24.1086 12.1623 24.0901 11.1686 23.6743 10.3148H23.6743ZM15.905 8.94129H14.627C14.4369 8.9412 14.2698 8.81518 14.2176 8.63242L13.815 7.22358L12.4858 12.873C12.4405 13.0656 12.2686 13.2016 12.0708 13.2015H12.0636C11.8639 13.1981 11.6933 13.0564 11.6533 12.8607L10.3668 6.42777L9.93222 8.60047C9.89173 8.79885 9.7172 8.94133 9.51472 8.94129H6.53259C6.2973 8.94129 6.10656 8.75055 6.10656 8.51526C6.10656 8.27998 6.2973 8.08924 6.53259 8.08924H9.16539L9.94927 4.16986C9.98959 3.97131 10.1642 3.82861 10.3668 3.82861C10.5694 3.82861 10.7439 3.97131 10.7843 4.16986L12.1049 10.7702L13.3604 5.43386C13.4054 5.24566 13.5717 5.11146 13.7651 5.1071C13.9597 5.10011 14.1334 5.22809 14.1843 5.41596L14.9482 8.08924H15.905C16.1403 8.08924 16.331 8.27997 16.331 8.51526C16.331 8.75054 16.1403 8.94128 15.905 8.94128L15.905 8.94129ZM18.4611 8.94128H17.6091C17.3738 8.94128 17.1831 8.75055 17.1831 8.51526C17.1831 8.27998 17.3738 8.08924 17.6091 8.08924H18.4611C18.6964 8.08924 18.8872 8.27997 18.8872 8.51526C18.8872 8.75054 18.6964 8.94128 18.4611 8.94128Z" fill="url(#paint0_linear_3_697)"/>
<defs>
<linearGradient id="paint0_linear_3_697" x1="7.78218" y1="2.96763" x2="12.4012" y2="22.8822" gradientUnits="userSpaceOnUse">
<stop stop-color="#3135C6"/>
<stop offset="1" stop-color="#00AAFF"/>
</linearGradient>
</defs>
</svg>
