<svg width="16" height="16" viewBox="0 0 16 16" fill="none" xmlns="http://www.w3.org/2000/svg">
<g clip-path="url(#clip0_3_553)">
<path d="M4.93962 3.66213C4.93299 3.23334 5.01162 2.80737 5.17092 2.40904C5.33022 2.01071 5.56702 1.64798 5.8675 1.342C6.16798 1.03601 6.52614 0.792894 6.92111 0.626805C7.31608 0.460717 7.73995 0.374984 8.16803 0.3746C8.59611 0.374216 9.01983 0.45919 9.41451 0.62457C9.80918 0.78995 10.1669 1.03243 10.4668 1.33787C10.7668 1.64332 11.0029 2.00562 11.1615 2.40367C11.3201 2.80172 11.398 3.22755 11.3906 3.65634L11.3825 12.7154C11.3817 13.5724 11.0412 14.3946 10.4357 15.0011C9.83028 15.6076 9.00956 15.9488 8.15411 15.9496C7.29866 15.9503 6.47855 15.6106 5.8742 15.0052C5.26985 14.3998 4.93076 13.5782 4.93152 12.7212L4.93962 3.66213ZM8.16727 1.22857C7.52379 1.22923 6.90647 1.4859 6.45106 1.94213C5.99565 2.39835 5.73944 3.01678 5.73878 3.66141L5.73453 7.79065L10.5872 7.7863L10.5914 3.65706C10.5918 3.33784 10.5293 3.02179 10.4077 2.72697C10.286 2.43215 10.1076 2.16433 9.88244 1.93881C9.65732 1.7133 9.38998 1.5345 9.09569 1.41263C8.8014 1.29076 8.48591 1.22822 8.16727 1.22857ZM9.85391 11.1841C9.74794 11.1842 9.64627 11.2265 9.57127 11.3016C9.49627 11.3768 9.45408 11.4786 9.45397 11.5848L9.45245 13.2833C9.45239 13.3795 9.43343 13.4747 9.39663 13.5636C9.35984 13.6525 9.30594 13.7332 9.23802 13.8013C9.17009 13.8693 9.08947 13.9233 9.00076 13.9602C8.91205 13.997 8.81699 14.016 8.72102 14.0161C8.6416 14.0153 8.56371 14.0383 8.49737 14.0822C8.43103 14.126 8.37927 14.1888 8.34875 14.2623C8.31824 14.3358 8.31036 14.4167 8.32613 14.4947C8.3419 14.5727 8.3806 14.6441 8.43725 14.6997C8.4748 14.7373 8.51948 14.7671 8.56866 14.7871C8.61785 14.8072 8.67055 14.8173 8.72369 14.8167C9.12888 14.8154 9.51732 14.6532 9.80377 14.3656C10.0902 14.078 10.2513 13.6885 10.2516 13.2826L10.2531 11.584C10.2532 11.4779 10.2112 11.3761 10.1363 11.3011C10.0615 11.2261 9.95988 11.184 9.85391 11.1841Z" fill="url(#paint0_linear_3_553)"/>
</g>
<defs>
<linearGradient id="paint0_linear_3_553" x1="2.84419" y1="6.12117" x2="12.9918" y2="12.2087" gradientUnits="userSpaceOnUse">
<stop stop-color="#3135C6"/>
<stop offset="1" stop-color="#00AAFF"/>
</linearGradient>
<clipPath id="clip0_3_553">
<rect width="16" height="16" fill="white"/>
</clipPath>
</defs>
</svg>
