<svg width="24" height="24" viewBox="0 0 24 24" fill="none" xmlns="http://www.w3.org/2000/svg">
<rect width="24" height="24" rx="3" fill="url(#paint0_linear_502_32)"/>
<path d="M11.3828 5.75523C11.5961 5.19259 12.4034 5.19259 12.6174 5.75523L13.9973 9.57773C14.0454 9.70225 14.1302 9.80924 14.2404 9.88458C14.3506 9.95992 14.4811 10.0001 14.6146 9.99971H18.0058C18.6324 9.99971 18.9058 10.7797 18.4131 11.1617L15.9999 13.3329C15.8918 13.416 15.8128 13.5312 15.7742 13.662C15.7357 13.7928 15.7395 13.9324 15.7852 14.0609L16.6665 17.796C16.8812 18.396 16.1865 18.9113 15.6612 18.542L12.3834 16.4621C12.2711 16.3832 12.1373 16.3409 12.0001 16.3409C11.8629 16.3409 11.729 16.3832 11.6167 16.4621L8.33889 18.542C7.81425 18.9113 7.11894 18.3953 7.3336 17.796L8.2149 14.0609C8.26061 13.9324 8.26446 13.7928 8.2259 13.662C8.18734 13.5312 8.10834 13.416 8.00024 13.3329L5.58701 11.1617C5.0937 10.7797 5.36835 9.99971 5.99366 9.99971H9.38484C9.51836 10.0002 9.64888 9.96005 9.7591 9.8847C9.86933 9.80935 9.95409 9.7023 10.0021 9.57773L11.3821 5.75523H11.3828Z" stroke="white" stroke-linecap="round" stroke-linejoin="round"/>
<defs>
<linearGradient id="paint0_linear_502_32" x1="7.68358" y1="2.30397" x2="13.0256" y2="23.699" gradientUnits="userSpaceOnUse">
<stop stop-color="#3135C6"/>
<stop offset="1" stop-color="#00AAFF"/>
</linearGradient>
</defs>
</svg>
