<svg width="130" height="99" viewBox="0 0 130 99" fill="none" xmlns="http://www.w3.org/2000/svg">
<path opacity="0.6" d="M69.2357 98.0976C102.549 98.0976 129.555 95.4739 129.555 92.2374C129.555 89.0009 102.549 86.3772 69.2357 86.3772C35.9221 86.3772 8.91614 89.0009 8.91614 92.2374C8.91614 95.4739 35.9221 98.0976 69.2357 98.0976Z" fill="url(#paint0_radial_10_268)"/>
<path d="M72.3884 9.00802L68.8416 16.5743L57.4624 11.184L61.0092 3.61764C62.487 0.477375 66.2308 -0.882586 69.3835 0.601005C70.9598 1.3428 72.0682 2.65331 72.61 4.18635C73.1519 5.69467 73.1273 7.42552 72.3884 9.00802Z" fill="url(#paint1_linear_10_268)"/>
<path d="M68.8416 16.5496C68.9894 16.2529 66.551 14.8187 63.3983 13.3352C60.2456 11.8516 57.6102 10.8872 57.4624 11.1839C57.3146 11.4807 59.753 12.9148 62.9057 14.3984C66.0584 15.882 68.6938 16.8463 68.8416 16.5496Z" fill="url(#paint2_linear_10_268)"/>
<path d="M53.891 18.7502L57.4378 11.1839L68.817 16.5743L65.2702 24.1406C63.7924 27.2809 60.0486 28.6408 56.8959 27.1572C55.3196 26.4154 54.2112 25.1049 53.6693 23.5719C53.1028 22.0636 53.1521 20.3327 53.891 18.7502Z" fill="url(#paint3_linear_10_268)"/>
<path d="M101.058 27.182L101.452 19.8135L112.511 20.4317L112.117 27.8002C111.945 30.8663 109.334 33.2153 106.28 33.0422C104.753 32.968 103.398 32.251 102.462 31.1877C101.526 30.1492 100.959 28.7151 101.058 27.182Z" fill="url(#paint4_linear_10_268)"/>
<path d="M101.452 19.863C101.427 20.1597 103.891 20.5306 106.969 20.679C110.048 20.8273 112.511 20.7532 112.536 20.4564C112.56 20.1597 110.097 19.7888 107.019 19.6405C103.964 19.4674 101.477 19.5663 101.452 19.863Z" fill="url(#paint5_linear_10_268)"/>
<path d="M112.954 13.0632L112.56 20.4317L101.501 19.8135L101.895 12.445C102.068 9.37894 104.679 7.02993 107.733 7.20301C109.26 7.27719 110.615 7.99426 111.551 9.0575C112.487 10.1207 113.028 11.5301 112.954 13.0632Z" fill="url(#paint6_linear_10_268)"/>
<path d="M26.379 17.3656L29.5071 24.0418L19.4826 28.7893L16.3545 22.1131C15.0491 19.3437 16.2314 16.0304 19.0146 14.7199C20.3939 14.0523 21.921 14.0275 23.251 14.5221C24.581 14.9919 25.714 15.9809 26.379 17.3656Z" fill="url(#paint7_linear_10_268)"/>
<path d="M29.4825 24.0171C29.3593 23.7451 27.0194 24.6106 24.2362 25.9211C21.453 27.2316 19.3348 28.4926 19.4579 28.7646C19.5811 29.0366 21.921 28.1712 24.7042 26.8607C27.4874 25.5502 29.6056 24.2891 29.4825 24.0171Z" fill="url(#paint8_linear_10_268)"/>
<path d="M22.6105 35.4655L19.4825 28.7893L29.507 24.0418L32.6351 30.718C33.9405 33.4873 32.7582 36.8007 29.975 38.1112C28.5957 38.7788 27.0686 38.8035 25.7386 38.309C24.4085 37.8639 23.2509 36.8749 22.6105 35.4655Z" fill="url(#paint9_linear_10_268)"/>
<path d="M65.9846 24.5115C64.7777 21.0498 54.8271 20.7531 43.4971 23.8686C32.1672 26.9841 23.7436 32.3251 24.4825 35.9104L33.9159 70.5028C33.9159 70.5275 33.9159 70.5275 33.9159 70.5523C34.9012 74.1376 44.975 74.4838 56.4527 71.3435C67.9304 68.2033 76.4278 62.7387 75.4426 59.1533C75.4426 59.1286 75.4426 59.1286 75.418 59.1039L65.9846 24.5115Z" fill="#DDE6ED"/>
<path d="M64.2112 32.7949C63.3245 30.2975 55.2212 30.3222 45.9602 32.869C36.6746 35.4159 29.7042 39.5452 30.1968 42.1415L37.0194 67.1647V67.1894C37.7337 69.7857 45.9109 69.7857 55.3197 67.2142C64.7285 64.6426 71.7727 60.4391 71.0584 57.8428V57.8181L64.2112 32.7949Z" fill="url(#paint10_linear_10_268)"/>
<path d="M61.3541 21.0992L59.0142 12.4449L23.3003 22.2613L25.6401 30.8909C25.6401 30.9651 25.6401 31.0392 25.6648 31.1134C26.2066 33.0915 34.6548 32.4981 44.5069 29.8029C54.3837 27.083 61.9452 23.2998 61.4033 21.297C61.4033 21.1981 61.3787 21.1486 61.3541 21.0992Z" fill="#A5BED6"/>
<path d="M42.0998 20.8249C51.967 18.1158 59.5297 14.3179 58.9914 12.342C58.4532 10.3661 50.0178 10.9605 40.1505 13.6695C30.2832 16.3786 22.7206 20.1765 23.2588 22.1524C23.7971 24.1283 32.2325 23.5339 42.0998 20.8249Z" fill="#DDE6ED"/>
<path d="M106.157 29.803C106.23 26.1434 96.9694 22.4097 85.27 21.4207C73.5706 20.4316 63.8417 22.5581 63.2752 26.1682L60.2703 61.9227C60.2703 61.9474 60.2703 61.9474 60.2703 61.9722C59.9501 65.6812 69.3096 69.489 81.1568 70.5028C93.0039 71.5166 102.856 69.3159 103.176 65.607C103.176 65.5822 103.176 65.5822 103.176 65.5575L106.157 29.803Z" fill="#DDE6ED"/>
<path d="M101.674 36.9736C101.698 34.3279 94.0877 31.5585 84.5065 30.7425C74.9253 29.9265 66.9451 31.3854 66.5264 34.0064L64.3589 59.8456V59.8704C64.1373 62.5408 71.8219 65.3844 81.5262 66.2003C91.2306 67.0163 99.2847 65.5327 99.5064 62.8375V62.8128L101.674 36.9736Z" fill="url(#paint11_linear_10_268)"/>
<path d="M103.004 25.0061L103.767 16.0798L66.8712 12.9642L66.1323 21.8905C66.1077 21.9647 66.083 22.0389 66.083 22.0883C65.9106 24.1406 74.0386 26.4896 84.2356 27.3551C94.4325 28.2205 102.831 27.2562 103.004 25.2039C103.004 25.1297 103.004 25.0555 103.004 25.0061Z" fill="#A5BED6"/>
<path d="M103.773 15.9526C103.944 13.9114 95.8198 11.5563 85.6262 10.6924C75.4326 9.82853 67.0299 10.783 66.8583 12.8242C66.6866 14.8654 74.811 17.2205 85.0046 18.0844C95.1982 18.9483 103.601 17.9939 103.773 15.9526Z" fill="#DDE6ED"/>
<path d="M36.4282 93.721C40.2234 93.721 43.3 90.6323 43.3 86.8223C43.3 83.0122 40.2234 79.9236 36.4282 79.9236C32.633 79.9236 29.5563 83.0122 29.5563 86.8223C29.5563 90.6323 32.633 93.721 36.4282 93.721Z" fill="url(#paint12_linear_10_268)"/>
<path d="M36.4281 91.5945C39.0535 91.5945 41.1818 89.4579 41.1818 86.8223C41.1818 84.1867 39.0535 82.05 36.4281 82.05C33.8028 82.05 31.6745 84.1867 31.6745 86.8223C31.6745 89.4579 33.8028 91.5945 36.4281 91.5945Z" fill="#DDE6ED"/>
<path d="M102.61 93.721C106.405 93.721 109.482 90.6323 109.482 86.8223C109.482 83.0122 106.405 79.9236 102.61 79.9236C98.8145 79.9236 95.7379 83.0122 95.7379 86.8223C95.7379 90.6323 98.8145 93.721 102.61 93.721Z" fill="url(#paint13_linear_10_268)"/>
<path d="M102.61 91.5945C105.235 91.5945 107.363 89.4579 107.363 86.8223C107.363 84.1867 105.235 82.05 102.61 82.05C99.9843 82.05 97.856 84.1867 97.856 86.8223C97.856 89.4579 99.9843 91.5945 102.61 91.5945Z" fill="#DDE6ED"/>
<path d="M116.723 19.764C114.629 19.319 112.585 20.58 112.043 22.6323H14.8766C14.4579 22.6323 14.0392 22.7065 13.6698 22.8301L10.1476 16.0798C9.13778 14.1264 6.72401 13.3599 4.77822 14.3984C2.83242 15.4122 2.06889 17.8354 3.10336 19.7888L30.2459 71.8133H27.5859C25.3938 71.8133 23.5958 73.5937 23.5958 75.819C23.5958 78.0197 25.3691 79.8247 27.5859 79.8247H110.491C112.684 79.8247 114.482 78.0444 114.482 75.819C114.482 73.6184 112.708 71.8133 110.491 71.8133H109.531L119.752 24.5115C120.245 22.3603 118.866 20.2338 116.723 19.764ZM104.556 57.2247C104.457 57.2247 104.334 57.2 104.235 57.2H31.6006L27.9307 50.1776H106.083L104.556 57.2247ZM110.294 30.6437L107.807 42.191H25.1721C24.7288 42.191 24.2854 42.2652 23.8667 42.4135L17.7338 30.6437H110.294ZM39.236 71.8381L35.7631 65.1866H102.831L101.403 71.8381H39.236Z" fill="#ABABC9"/>
<path opacity="0.39" d="M116.723 19.764C114.629 19.319 112.585 20.58 112.043 22.6323H14.8766C14.4579 22.6323 14.0392 22.7065 13.6698 22.8301L10.1476 16.0798C9.13778 14.1264 6.72401 13.3599 4.77822 14.3984C2.83242 15.4122 2.06889 17.8354 3.10336 19.7888L30.2459 71.8133H27.5859C25.3938 71.8133 23.5958 73.5937 23.5958 75.819C23.5958 78.0197 25.3691 79.8247 27.5859 79.8247H110.491C112.684 79.8247 114.482 78.0444 114.482 75.819C114.482 73.6184 112.708 71.8133 110.491 71.8133H109.531L119.752 24.5115C120.245 22.3603 118.866 20.2338 116.723 19.764ZM104.556 57.2247C104.457 57.2247 104.334 57.2 104.235 57.2H31.6006L27.9307 50.1776H106.083L104.556 57.2247ZM110.294 30.6437L107.807 42.191H25.1721C24.7288 42.191 24.2854 42.2652 23.8667 42.4135L17.7338 30.6437H110.294ZM39.236 71.8381L35.7631 65.1866H102.831L101.403 71.8381H39.236Z" fill="url(#paint14_linear_10_268)"/>
<path d="M5.41863 20.9756C8.41128 20.9756 10.8373 18.5401 10.8373 15.5358C10.8373 12.5314 8.41128 10.0959 5.41863 10.0959C2.42599 10.0959 -3.05176e-05 12.5314 -3.05176e-05 15.5358C-3.05176e-05 18.5401 2.42599 20.9756 5.41863 20.9756Z" fill="url(#paint15_linear_10_268)"/>
<path d="M5.39397 18.5524C7.10794 18.5524 8.49739 17.1576 8.49739 15.4369C8.49739 13.7162 7.10794 12.3214 5.39397 12.3214C3.68 12.3214 2.29056 13.7162 2.29056 15.4369C2.29056 17.1576 3.68 18.5524 5.39397 18.5524Z" fill="#DDE6ED"/>
<defs>
<radialGradient id="paint0_radial_10_268" cx="0" cy="0" r="1" gradientUnits="userSpaceOnUse" gradientTransform="translate(70.5241 92.8512) scale(38.3057 48.9249)">
<stop stop-color="#7995CE"/>
<stop offset="1" stop-color="#BFD1FF"/>
</radialGradient>
<linearGradient id="paint1_linear_10_268" x1="60.5667" y1="4.55962" x2="71.9535" y2="9.90358" gradientUnits="userSpaceOnUse">
<stop stop-color="#2EFFAF"/>
<stop offset="1" stop-color="#00AAFF"/>
</linearGradient>
<linearGradient id="paint2_linear_10_268" x1="57.4665" y1="11.1593" x2="68.8548" y2="16.504" gradientUnits="userSpaceOnUse">
<stop stop-color="#0E2C44"/>
<stop offset="1" stop-color="#00AAFF"/>
</linearGradient>
<linearGradient id="paint3_linear_10_268" x1="65.6619" y1="23.1643" x2="54.2751" y2="17.8203" gradientUnits="userSpaceOnUse">
<stop stop-color="#3135C6"/>
<stop offset="1" stop-color="#00AAFF"/>
</linearGradient>
<linearGradient id="paint4_linear_10_268" x1="112.171" y1="26.8911" x2="101.105" y2="26.2866" gradientUnits="userSpaceOnUse">
<stop stop-color="#2EFFAF"/>
<stop offset="1" stop-color="#00AAFF"/>
</linearGradient>
<linearGradient id="paint5_linear_10_268" x1="112.524" y1="20.4675" x2="101.456" y2="19.8629" gradientUnits="userSpaceOnUse">
<stop stop-color="#0E2C44"/>
<stop offset="1" stop-color="#00AAFF"/>
</linearGradient>
<linearGradient id="paint6_linear_10_268" x1="101.827" y1="13.3668" x2="112.893" y2="13.9713" gradientUnits="userSpaceOnUse">
<stop stop-color="#3135C6"/>
<stop offset="1" stop-color="#00AAFF"/>
</linearGradient>
<linearGradient id="paint7_linear_10_268" x1="16.746" y1="22.9384" x2="26.7842" y2="18.2234" gradientUnits="userSpaceOnUse">
<stop stop-color="#2EFFAF"/>
<stop offset="1" stop-color="#00AAFF"/>
</linearGradient>
<linearGradient id="paint8_linear_10_268" x1="19.4771" y1="28.7584" x2="29.5166" y2="24.0429" gradientUnits="userSpaceOnUse">
<stop stop-color="#0E2C44"/>
<stop offset="1" stop-color="#00AAFF"/>
</linearGradient>
<linearGradient id="paint9_linear_10_268" x1="32.2621" y1="29.8601" x2="22.2238" y2="34.575" gradientUnits="userSpaceOnUse">
<stop stop-color="#3135C6"/>
<stop offset="1" stop-color="#00AAFF"/>
</linearGradient>
<linearGradient id="paint10_linear_10_268" x1="33.604" y1="54.733" x2="67.6652" y2="45.4541" gradientUnits="userSpaceOnUse">
<stop stop-color="#3135C6"/>
<stop offset="1" stop-color="#00AAFF"/>
</linearGradient>
<linearGradient id="paint11_linear_10_268" x1="65.4192" y1="47.0037" x2="100.59" y2="49.9612" gradientUnits="userSpaceOnUse">
<stop stop-color="#2EFFAF"/>
<stop offset="1" stop-color="#00AAFF"/>
</linearGradient>
<linearGradient id="paint12_linear_10_268" x1="38.8323" y1="91.6416" x2="33.689" y2="81.3951" gradientUnits="userSpaceOnUse">
<stop stop-color="#2EFFAF"/>
<stop offset="1" stop-color="#00AAFF"/>
</linearGradient>
<linearGradient id="paint13_linear_10_268" x1="105.016" y1="91.6416" x2="99.8732" y2="81.3951" gradientUnits="userSpaceOnUse">
<stop stop-color="#2EFFAF"/>
<stop offset="1" stop-color="#00AAFF"/>
</linearGradient>
<linearGradient id="paint14_linear_10_268" x1="2.64225" y1="46.8899" x2="119.86" y2="46.8899" gradientUnits="userSpaceOnUse">
<stop stop-color="#BFD1FF" stop-opacity="0"/>
<stop offset="1" stop-color="#00FFE1"/>
</linearGradient>
<linearGradient id="paint15_linear_10_268" x1="-3.05176e-05" y1="15.5238" x2="10.8564" y2="15.5238" gradientUnits="userSpaceOnUse">
<stop stop-color="#3135C6"/>
<stop offset="1" stop-color="#00AAFF"/>
</linearGradient>
</defs>
</svg>
