<svg width="34" height="35" viewBox="0 0 34 35" fill="none" xmlns="http://www.w3.org/2000/svg">
<circle cx="16.999" cy="17.9058" r="17" fill="white"/>
<g clip-path="url(#clip0_398_17)">
<path d="M13.499 27.9058C14.3275 27.9058 14.999 27.2342 14.999 26.4058C14.999 25.5773 14.3275 24.9058 13.499 24.9058C12.6706 24.9058 11.999 25.5773 11.999 26.4058C11.999 27.2342 12.6706 27.9058 13.499 27.9058Z" fill="#545976"/>
<path d="M22.499 27.9058C23.3275 27.9058 23.999 27.2342 23.999 26.4058C23.999 25.5773 23.3275 24.9058 22.499 24.9058C21.6706 24.9058 20.999 25.5773 20.999 26.4058C20.999 27.2342 21.6706 27.9058 22.499 27.9058Z" fill="#545976"/>
<path d="M25.8421 10.6949C25.7814 10.6214 25.7047 10.5621 25.6178 10.5211C25.5308 10.4802 25.4357 10.4586 25.3392 10.458H11.74L12.1646 11.7385H24.4835L22.7395 19.4217H12.9419L9.95683 10.157C9.92455 10.0587 9.86848 9.96954 9.79341 9.89707C9.71834 9.8246 9.62651 9.77101 9.52574 9.74087L6.8477 8.93413C6.76536 8.90932 6.67883 8.90066 6.59307 8.90863C6.50731 8.91661 6.42399 8.94106 6.34787 8.9806C6.19414 9.06045 6.07907 9.19689 6.02796 9.35991C5.97686 9.52292 5.99391 9.69916 6.07537 9.84986C6.15683 10.0005 6.29602 10.1133 6.46233 10.1634L8.80724 10.8677L11.8053 20.1516L10.7341 21.0096L10.6492 21.0928C10.3842 21.3921 10.234 21.7727 10.2245 22.1689C10.215 22.5651 10.3467 22.9521 10.5969 23.2633C10.775 23.4756 11.0012 23.644 11.2575 23.7552C11.5139 23.8664 11.7932 23.9172 12.0731 23.9036H22.9747C23.1479 23.9036 23.3141 23.8362 23.4366 23.7161C23.5591 23.596 23.6279 23.4332 23.6279 23.2633C23.6279 23.0935 23.5591 22.9307 23.4366 22.8106C23.3141 22.6905 23.1479 22.6231 22.9747 22.6231H11.9686C11.8934 22.6206 11.8201 22.5991 11.7559 22.5607C11.6916 22.5223 11.6385 22.4683 11.6017 22.4039C11.565 22.3396 11.5457 22.267 11.5459 22.1932C11.5461 22.1195 11.5657 22.047 11.6028 21.9828L13.177 20.7023H23.2621C23.4131 20.7059 23.5607 20.6581 23.6798 20.567C23.7989 20.476 23.8821 20.3473 23.9153 20.2029L25.9858 11.2391C26.0057 11.1436 26.0031 11.045 25.9782 10.9507C25.9533 10.8564 25.9068 10.7689 25.8421 10.6949Z" fill="#545976"/>
</g>
<defs>
<clipPath id="clip0_398_17">
<rect width="24" height="23" fill="white" transform="translate(3.99902 6.90576)"/>
</clipPath>
</defs>
</svg>
