<svg width="114" height="28" viewBox="0 0 114 28" fill="none" xmlns="http://www.w3.org/2000/svg">
<g clip-path="url(#clip0_15_209)">
<path d="M51.4531 16.7335V20.3174C51.4531 21.9829 52.8092 23.3258 54.4715 23.3258C56.1426 23.3258 57.49 21.9742 57.49 20.3174V16.7335H51.4531Z" fill="white"/>
<path d="M57.49 12.2776V8.70246C57.49 7.03696 56.1339 5.69409 54.4715 5.69409C52.8005 5.69409 51.4531 7.04568 51.4531 8.70246V12.2863H57.49V12.2776Z" fill="white"/>
<path d="M0 21.9306V2.241C0 1.7178 0.428703 1.29053 0.953645 1.29053H1.3386C1.86355 1.29053 2.29225 1.7178 2.29225 2.241V21.9219C2.29225 22.445 1.86355 22.8723 1.3386 22.8723H0.953645C0.428703 22.881 0 22.4538 0 21.9306ZM1.97728 17.5096L1.89854 15.1378C1.88979 14.8762 1.98603 14.632 2.16976 14.4402L14.7246 1.587C14.9084 1.40389 15.1533 1.29925 15.4071 1.29925C16.247 1.29925 16.6757 2.30204 16.0982 2.90371L8.07537 11.2836L6.77176 12.67L1.97728 17.5096ZM15.2758 22.5497L6.78051 12.7921C6.46554 12.4259 6.47429 11.8765 6.798 11.5277L7.03423 11.2748C7.41919 10.8563 8.09286 10.8737 8.46032 11.3097L16.9556 21.3202C17.4806 21.9393 17.0431 22.881 16.2295 22.881H15.9932C15.722 22.881 15.4596 22.759 15.2758 22.5497Z" fill="white"/>
<path d="M24.7335 26.0638V7.73455C24.7335 7.15903 25.206 6.68816 25.7834 6.68816C26.3608 6.68816 26.8333 7.15903 26.8333 7.73455V11.5539L26.6146 14.789L26.9208 18.0589V26.0551C26.9208 26.6306 26.4483 27.1015 25.8709 27.1015H25.7747C25.206 27.1189 24.7335 26.648 24.7335 26.0638ZM33.1151 23.0293C31.7153 23.0293 30.4466 22.7066 29.3093 22.0614C28.1719 21.4161 27.2707 20.4831 26.6058 19.2536C25.9321 18.0328 25.5997 16.5329 25.5997 14.7715C25.5997 13.0014 25.9321 11.5103 26.5883 10.2895C27.2445 9.06869 28.1456 8.13566 29.283 7.49911C30.4204 6.86255 31.6978 6.53992 33.1151 6.53992C34.6637 6.53992 36.046 6.88871 37.2796 7.56887C38.5045 8.25774 39.4669 9.22565 40.1756 10.4639C40.8755 11.7108 41.2255 13.1409 41.2255 14.7628C41.2255 16.4109 40.8755 17.8496 40.1756 19.0792C39.4757 20.3087 38.5133 21.2766 37.2796 21.9742C36.0548 22.6805 34.6637 23.0293 33.1151 23.0293ZM32.9664 21.0935C34.1212 21.0935 35.1536 20.8319 36.0635 20.3087C36.9734 19.7855 37.6908 19.0443 38.2333 18.0851C38.767 17.1259 39.0382 16.0272 39.0382 14.7715C39.0382 13.5158 38.767 12.4171 38.2333 11.4754C37.6996 10.5336 36.9734 9.79245 36.0635 9.25181C35.1536 8.7199 34.1212 8.44958 32.9664 8.44958C31.8115 8.44958 30.7791 8.7199 29.8605 9.25181C28.9418 9.78373 28.2244 10.5249 27.6907 11.4754C27.1658 12.4171 26.9033 13.5246 26.9033 14.7715C26.9033 16.0272 27.1658 17.1259 27.6907 18.0851C28.2156 19.0443 28.9418 19.7767 29.8605 20.3087C30.7704 20.8231 31.8115 21.0935 32.9664 21.0935Z" fill="white"/>
<path d="M73.9732 23.0293C72.5908 23.0293 71.3834 22.7764 70.3511 22.2619C69.3187 21.7475 68.5225 20.9801 67.9538 19.9512C67.3851 18.9222 67.1052 17.6404 67.1052 16.097V7.78688C67.1052 7.18521 67.5951 6.68817 68.2075 6.68817C68.8112 6.68817 69.3099 7.17649 69.3099 7.78688V15.8528C69.3099 17.5793 69.7386 18.8786 70.596 19.7506C71.4534 20.6226 72.6521 21.0586 74.2006 21.0586C75.338 21.0586 76.3179 20.8232 77.1578 20.361C77.989 19.8988 78.6364 19.2274 79.0739 18.338C79.5201 17.4573 79.7388 16.3934 79.7388 15.1639V7.78688C79.7388 7.18521 80.2287 6.68817 80.8412 6.68817C81.4448 6.68817 81.9435 7.17649 81.9435 7.78688V21.8347C81.9435 22.4102 81.4711 22.8811 80.8937 22.8811C80.3162 22.8811 79.8438 22.4102 79.8438 21.8347V18.4426L80.185 19.2449C79.6688 20.4395 78.8726 21.3638 77.7877 22.0352C76.6854 22.6979 75.4168 23.0293 73.9732 23.0293Z" fill="white"/>
<path d="M89.6777 21.7824V1.09871C89.6777 0.497035 90.1676 0 90.7801 0C91.3837 0 91.8824 0.488315 91.8824 1.09871V21.7911C91.8824 22.3927 91.3925 22.8898 90.7801 22.8898C90.1676 22.8811 89.6777 22.384 89.6777 21.7824Z" fill="white"/>
<path d="M106.703 23.0293C105.015 23.0293 103.527 22.6718 102.25 21.9654C100.973 21.2591 99.9753 20.2825 99.2491 19.0355C98.523 17.7886 98.1642 16.3673 98.1642 14.7628C98.1642 13.1583 98.5055 11.737 99.1966 10.5075C99.8878 9.27796 100.833 8.30133 102.04 7.59502C103.247 6.88871 104.604 6.53119 106.108 6.53119C107.631 6.53119 108.987 6.87999 110.177 7.56014C111.367 8.24901 112.294 9.21692 112.976 10.4552C113.659 11.7021 114 13.1322 114 14.7541C114 14.8587 113.991 14.9633 113.983 15.0767C113.974 15.1901 113.965 15.3121 113.965 15.4342H99.8266V13.8036H112.793L111.926 14.4489C111.926 13.2804 111.673 12.234 111.165 11.3184C110.658 10.4028 109.975 9.6878 109.109 9.17332C108.243 8.65885 107.246 8.40597 106.108 8.40597C104.997 8.40597 103.991 8.66757 103.107 9.17332C102.224 9.6878 101.533 10.4028 101.034 11.3359C100.535 12.2602 100.29 13.324 100.29 14.5099V14.85C100.29 16.0795 100.561 17.1695 101.113 18.1025C101.655 19.0356 102.425 19.768 103.405 20.2912C104.385 20.8144 105.505 21.076 106.765 21.076C107.753 21.076 108.681 20.9016 109.529 20.5528C110.098 20.3174 110.614 20.0035 111.087 19.6111C111.472 19.2797 112.058 19.3059 112.39 19.6895L112.434 19.7419C112.758 20.1168 112.731 20.6749 112.373 21.0063C111.769 21.5643 111.069 22.009 110.273 22.3404C109.197 22.8026 107.998 23.0293 106.703 23.0293Z" fill="white"/>
<path d="M59.6947 11.1266C60.2284 11.0743 60.6221 10.6121 60.6221 10.0802V8.61526C60.6221 5.23193 57.9099 2.43284 54.5765 2.3718C52.9142 2.33692 51.3394 2.96476 50.1495 4.13322C48.9596 5.30169 48.3034 6.85384 48.3034 8.51062V15.0593C48.3122 15.3034 48.5134 15.4953 48.7496 15.4953H49.7995H58.5661V20.3436C58.5661 22.602 56.7638 24.4768 54.5503 24.5291C53.4391 24.5553 52.3805 24.1367 51.5843 23.3606C50.7882 22.5846 50.342 21.5469 50.342 20.4307V18.8612C50.342 18.3293 49.9483 17.8671 49.4146 17.8148C48.8021 17.7537 48.2859 18.2333 48.2859 18.835V20.3348C48.2859 23.7182 50.9982 26.5173 54.3315 26.5783C54.3665 26.5783 54.4103 26.5783 54.4453 26.5783C56.0638 26.5783 57.6037 25.9505 58.7585 24.8169C59.9484 23.6484 60.6046 22.0963 60.6046 20.4395V13.8821C60.5958 13.6379 60.3946 13.4461 60.1584 13.4461L50.3332 13.4548V8.60654C50.3332 6.34808 52.1355 4.4733 54.349 4.42098C55.4602 4.39482 56.5188 4.81338 57.315 5.58945C58.1111 6.36552 58.5573 7.40319 58.5573 8.51934V10.1151C58.5748 10.708 59.0823 11.1789 59.6947 11.1266Z" fill="white"/>
</g>
<defs>
<clipPath id="clip0_15_209">
<rect width="114" height="27.1189" fill="white"/>
</clipPath>
</defs>
</svg>
